<svg width="32" height="32" viewBox="0 0 16 16" fill="none" xmlns="http://www.w3.org/2000/svg">
<mask id="path-1-inside-1_22_2937" fill="white">
<path d="M16 0H4C1.79086 0 0 1.79086 0 4V16H16V0Z"/>
</mask>
<path fill-rule="evenodd" clip-rule="evenodd" d="M14.5 -0.5V0.5V1H16V0.5V0V-0.5V-1H14.5V-0.5ZM11.5 -1V-0.5V0.5V1H8.5V0.5V-0.5V-1H11.5ZM5.5 -1V-0.5V0.5V1H4C3.97446 1 3.94901 1.00032 3.92364 1.00095C3.54313 1.0104 3.18222 1.09027 2.8519 1.22725L2.66038 0.765385L2.27732 -0.158341L2.08579 -0.620204C2.63644 -0.848546 3.23591 -0.981115 3.86213 -0.998129C3.90795 -0.999374 3.95391 -1 4 -1H5.5ZM0.765385 2.66038L-0.15834 2.27732L-0.620205 2.0858C-0.849936 2.63979 -0.982725 3.24321 -0.998426 3.87357C-0.999474 3.9156 -1 3.95774 -1 4V5.5H-0.5H0.5H1V4C1 3.97167 1.00039 3.94344 1.00116 3.91532C1.01156 3.53786 1.09127 3.17981 1.22725 2.8519L0.765385 2.66038ZM1 8.5V11.5H0.5H-0.5H-1V8.5H-0.5H0.5H1ZM-1 14.5H-0.5H0.5H1V16H0.5H0H-0.5H-1V14.5Z" fill="#E1E1E1" mask="url(#path-1-inside-1_22_2937)"/>
</svg>
