<?xml version="1.0" encoding="UTF-8"?>
<!DOCTYPE svg PUBLIC "-//W3C//DTD SVG 1.1//EN" "http://www.w3.org/Graphics/SVG/1.1/DTD/svg11.dtd">
<!-- Creator: CorelDRAW -->
<svg xmlns="http://www.w3.org/2000/svg" xml:space="preserve" width="18.8458mm" height="18.8584mm" version="1.1" style="shape-rendering:geometricPrecision; text-rendering:geometricPrecision; image-rendering:optimizeQuality; fill-rule:evenodd; clip-rule:evenodd"
viewBox="0 0 230.92 231.07"
 xmlns:xlink="http://www.w3.org/1999/xlink"
 xmlns:xodm="http://www.corel.com/coreldraw/odm/2003">
 <defs>
  <style type="text/css">
   <![CDATA[
    .fil0 {fill:#1A2A52}
   ]]>
  </style>
 </defs>
 <g id="Layer_x0020_1">
  <metadata id="CorelCorpID_0Corel-Layer"/>
  <path class="fil0" d="M-0 105.78l0 73.91c0,16.55 6.15,30.55 16.65,39.71 1.62,-0.14 3.29,-0.26 4.65,-0.88 4.84,-0.85 9.64,-4.42 12.07,-6.9 7.09,-7.22 10.19,-17.26 7.05,-27.17 -1.05,-3.3 -4.36,-10.17 -6.93,-11.49 -0.06,-0.56 0.32,-0.44 -0.36,-0.96 -0.5,-3.11 0.1,-3.98 1.68,-5.71l7.4 -7.51c2.94,-2.91 5.7,-6.46 8.85,-5.36 2.55,0.9 11.85,11.87 28.49,6.83 3.98,-1.21 6.93,-3.2 9.46,-5.45 4.67,-4.16 9.04,-10.87 9.61,-20.16 0.4,-6.49 3.79,-5.71 9.61,-5.7 2.94,0 12.46,-0.44 14.47,0.48 3.31,1.52 2.59,6.58 4.02,10.9 2.24,6.74 7.46,12.65 14.02,15.82 3.59,1.73 7.74,2.81 12.25,2.71 12.93,-0.27 18.01,-7.88 20.68,-9.21 2.23,-1.11 4.04,-0.27 5.44,1.12l7.72 7.2c1.23,1.33 2.42,2.08 3.87,3.59 2.63,2.75 6.98,4.97 6.11,8.62 -0.74,3.09 -14.4,14.08 -4.86,33.46 2.86,5.82 9,11.13 16.44,13.39 2.34,0.71 5.04,0.72 7.29,1.12 9.64,-9.16 15.25,-22.64 15.25,-38.45l0 -73.91c0,-14.8 -3.56,-25.44 -12.24,-35.78 -3.79,-4.51 -5.62,-5.73 -10.73,-9.77l-53.18 -43.94c-2.57,-2.09 -4.79,-4.1 -7.48,-6.01 -8.51,-6.03 -21.31,-10.29 -31.83,-10.29l-11.99 1.53c-3.92,0.9 -7.16,1.98 -10.49,3.53 -7.36,3.43 -10.74,6.11 -16.53,10.99 -8.76,7.38 -22.51,18.05 -30.45,25.12l-15.08 12.44c-2.67,2.15 -4.74,3.94 -7.35,6.14 -2.65,2.23 -4.96,4.22 -7.7,6.33 -4.19,3.22 -9.09,11.23 -11.38,16.14 -3.04,6.52 -4.49,14.23 -4.49,23.56zm152.12 -20.44l-16.85 0c-2.71,0 -4.92,2.21 -4.92,4.92l0 17.86c0,2.7 2.21,4.92 4.92,4.92l16.85 0c2.71,0 4.92,-2.21 4.92,-4.92l0 -17.86c0,-2.7 -2.21,-4.92 -4.92,-4.92zm-64.32 -0.71l-15.52 0c-2.71,0 -4.92,2.21 -4.92,4.92l0 17.86c0,2.71 2.21,4.92 4.92,4.92l16.85 0c2.71,0 4.92,-2.21 4.92,-4.92l0 -16.98c1.05,-4.22 3.72,-9.28 8.51,-11.36 0.31,0.06 0.63,0.09 0.96,0.09l16.85 0c2.71,0 4.92,-2.21 4.92,-4.92l0 -17.86c0,-2.71 -2.21,-4.92 -4.92,-4.92l-16.85 0c-2.71,0 -4.92,2.21 -4.92,4.92l0 17.27c-1.07,4.46 -5.87,9.3 -10.79,10.98l0 0zm-27.27 146.41l0.03 0c-0.02,-0.28 -0.02,-0.2 -0.03,0zm0.12 0c36.93,0.18 72.28,-0.46 109.68,-0.19 -1.19,-15.6 -9.04,-30.47 -22.03,-40.09 -35.62,-26.38 -84.89,-2.31 -87.65,40.28z"/>
 </g>
</svg>
